<svg xmlns="http://www.w3.org/2000/svg" xmlns:xlink="http://www.w3.org/1999/xlink" viewBox="0 0 310.94 157.63"><defs><style>.cls-1{fill:none;}.cls-2{fill:#b6e328;}.cls-3{fill:#0b8337;}.cls-4{fill:#171717;}.cls-5{clip-path:url(#clip-path);}.cls-6{fill:url(#Degradado_sin_nombre_15);}.cls-7{fill:#fff;}</style><clipPath id="clip-path" transform="translate(-0.31)"><rect class="cls-1" y="25.71" width="89.71" height="55.86"/></clipPath><linearGradient id="Degradado_sin_nombre_15" x1="0.31" y1="-190.24" x2="88.15" y2="-190.24" gradientTransform="matrix(1, 0, 0, -1, -0.31, -118)" gradientUnits="userSpaceOnUse"><stop offset="0" stop-color="#ffef26"/><stop offset="0.02" stop-color="#ffea21"/><stop offset="0.1" stop-color="#fed70f"/><stop offset="0.19" stop-color="#fdcc04"/><stop offset="0.28" stop-color="#fdc800"/><stop offset="0.67" stop-color="#f18f34"/><stop offset="0.89" stop-color="#e95f32"/><stop offset="1" stop-color="#e3312d"/></linearGradient></defs><g id="Capa_2" data-name="Capa 2"><g id="Capa_1-2" data-name="Capa 1"><path class="cls-2" d="M55.2,30.54s100.74-51.19,207-21c0,0,107.2,31.39.47,96.18,0,0,55.15-57.43-15.79-82.77C155.4-9.76,55.2,30.54,55.2,30.54Z" transform="translate(-0.31)"/><path class="cls-3" d="M117.62,11.54S230-10.29,276.56,27.53s-13.89,78.14-13.89,78.14S312.93,52.19,252.43,26c0,0-62.34-32.28-197.23,4.51C55.2,30.54,90.57,16.22,117.62,11.54Z" transform="translate(-0.31)"/><path class="cls-4" d="M186,157.63l8.55-25h4.38l8.58,25h-4.66l-7-22.09h1.75l-7,22.09Zm4.27-5.36,1.18-4.39h9.87l1.2,4.39Z" transform="translate(-0.31)"/><path class="cls-4" d="M209.49,157.63v-25h3.68l11.31,18H222.7v-18h4.39v25h-3.65l-11.34-18h1.78v18Z" transform="translate(-0.31)"/><path class="cls-4" d="M231.64,157.63v-25h8.71a9.85,9.85,0,0,1,5.51,1.56,10.45,10.45,0,0,1,3.73,4.34,16.95,16.95,0,0,1,0,13.21,10.51,10.51,0,0,1-3.73,4.36,9.92,9.92,0,0,1-5.51,1.55Zm4.44-4.75h4a5.84,5.84,0,0,0,3.33-.95,6.16,6.16,0,0,0,2.19-2.7,11.14,11.14,0,0,0,0-8.24,6.28,6.28,0,0,0-2.19-2.68,5.84,5.84,0,0,0-3.33-.94h-4Z" transform="translate(-0.31)"/><path class="cls-4" d="M258.69,153h10.44v4.64H254.27v-25h14.5v4.65H258.69Zm-.33-10.3h9.23v4.51h-9.23Z" transform="translate(-0.31)"/><path class="cls-4" d="M270.14,157.63l8.55-25h4.39l8.57,25H287l-7-22.09h1.75l-7,22.09Zm4.28-5.36,1.17-4.39h9.87l1.21,4.39Z" transform="translate(-0.31)"/><path class="cls-4" d="M293.65,157.63v-25h3.68l11.32,18h-1.79v-18h4.39v25H307.6l-11.34-18H298v18Z" transform="translate(-0.31)"/><path class="cls-4" d="M70.15,122.73a9.33,9.33,0,0,1-4.26-1A10.12,10.12,0,0,1,62.47,119a13.79,13.79,0,0,1-2.25-4.25,18.14,18.14,0,0,1,0-10.72,13.45,13.45,0,0,1,2.27-4.24A10.19,10.19,0,0,1,65.9,97a9.32,9.32,0,0,1,4.28-1,9.45,9.45,0,0,1,4.66,1.16,9.85,9.85,0,0,1,3.5,3.42l-3,3.55a7.58,7.58,0,0,0-2.27-2.28,5.16,5.16,0,0,0-2.72-.75,5.43,5.43,0,0,0-2.54.59,5.84,5.84,0,0,0-2,1.7A8.36,8.36,0,0,0,64.53,106a12.25,12.25,0,0,0,0,6.72,8.42,8.42,0,0,0,1.31,2.63,5.92,5.92,0,0,0,2,1.69,5.44,5.44,0,0,0,2.54.6,5.17,5.17,0,0,0,2.72-.76,7.48,7.48,0,0,0,2.27-2.31l3,3.55a10,10,0,0,1-3.5,3.43A9.31,9.31,0,0,1,70.15,122.73Z" transform="translate(-0.31)"/><path class="cls-4" d="M86,122.29H81.42V96.43H86Zm9.35-10.6H85.67v-5.06h9.69ZM95,96.43h4.59v25.86H95Z" transform="translate(-0.31)"/><path class="cls-4" d="M113.12,122.73a7.88,7.88,0,0,1-6.6-3.06c-1.59-2-2.38-5-2.38-8.76V96.43h4.59v14.26c0,2.46.38,4.24,1.16,5.32a4.07,4.07,0,0,0,6.51,0c.78-1.08,1.17-2.86,1.17-5.32V96.43h4.53v14.48c0,3.8-.8,6.71-2.38,8.76A7.9,7.9,0,0,1,113.12,122.73Z" transform="translate(-0.31)"/><path class="cls-4" d="M126.63,122.29V96.43h8.58a8.92,8.92,0,0,1,4.59,1.13,7.5,7.5,0,0,1,3,3.23,12.45,12.45,0,0,1,0,10,7.45,7.45,0,0,1-3,3.23,8.83,8.83,0,0,1-4.59,1.13h-6l2-2.7v9.83Zm4.59-9.16-2-2.85H135a4,4,0,0,0,3.17-1.18,4.78,4.78,0,0,0,1.05-3.29,4.84,4.84,0,0,0-1.05-3.32,4,4,0,0,0-3.17-1.18h-5.78l2-2.85Z" transform="translate(-0.31)"/><path class="cls-4" d="M147.08,122.29V96.43h4.59v25.86Z" transform="translate(-0.31)"/><path class="cls-4" d="M165.86,122.73a9.33,9.33,0,0,1-4.26-1,10.12,10.12,0,0,1-3.42-2.78,13.79,13.79,0,0,1-2.25-4.25,18.14,18.14,0,0,1,0-10.72,13.26,13.26,0,0,1,2.27-4.24A10.19,10.19,0,0,1,161.61,97a9.32,9.32,0,0,1,4.28-1,9.47,9.47,0,0,1,4.66,1.16,9.83,9.83,0,0,1,3.49,3.42l-2.94,3.55a7.58,7.58,0,0,0-2.27-2.28,5.18,5.18,0,0,0-2.72-.75,5.5,5.5,0,0,0-2.55.59,5.9,5.9,0,0,0-2,1.7,8.36,8.36,0,0,0-1.31,2.62,12.25,12.25,0,0,0,0,6.72,8.42,8.42,0,0,0,1.31,2.63,6,6,0,0,0,2,1.69,5.51,5.51,0,0,0,2.55.6,5.19,5.19,0,0,0,2.72-.76,7.48,7.48,0,0,0,2.27-2.31l2.94,3.55a9.94,9.94,0,0,1-3.49,3.43A9.31,9.31,0,0,1,165.86,122.73Z" transform="translate(-0.31)"/><path class="cls-4" d="M186.19,122.73a9.36,9.36,0,0,1-4.26-1,10.09,10.09,0,0,1-3.41-2.78,13.79,13.79,0,0,1-2.25-4.25,18.14,18.14,0,0,1,0-10.72,13.44,13.44,0,0,1,2.26-4.24A10.22,10.22,0,0,1,182,97a9.28,9.28,0,0,1,4.27-1,9.45,9.45,0,0,1,4.66,1.16,9.77,9.77,0,0,1,3.5,3.42l-2.95,3.55a7.55,7.55,0,0,0-2.26-2.28,5.18,5.18,0,0,0-2.72-.75,5.44,5.44,0,0,0-2.55.59,5.9,5.9,0,0,0-2,1.7,8.17,8.17,0,0,0-1.32,2.62,12.5,12.5,0,0,0,0,6.72,8.22,8.22,0,0,0,1.32,2.63,6,6,0,0,0,2,1.69,5.45,5.45,0,0,0,2.55.6,5.19,5.19,0,0,0,2.72-.76,7.45,7.45,0,0,0,2.26-2.31l2.95,3.55a9.89,9.89,0,0,1-3.5,3.43A9.31,9.31,0,0,1,186.19,122.73Z" transform="translate(-0.31)"/><path class="cls-4" d="M202.06,122.29h-4.59V96.43h4.59Zm9.34-10.6h-9.68v-5.06h9.68Zm-.34-15.26h4.59v25.86h-4.59Z" transform="translate(-0.31)"/><path class="cls-4" d="M229.16,122.73a7.9,7.9,0,0,1-6.6-3.06c-1.58-2-2.38-5-2.38-8.76V96.43h4.59v14.26c0,2.46.39,4.24,1.16,5.32a4.07,4.07,0,0,0,6.52,0c.77-1.08,1.16-2.86,1.16-5.32V96.43h4.53v14.48c0,3.8-.79,6.71-2.38,8.76A7.88,7.88,0,0,1,229.16,122.73Z" transform="translate(-0.31)"/><path class="cls-3" d="M2.42,123.46V92.37h4.5l10,21.94H14.54l9.84-21.94h4.47l.06,31.09h-5.1l0-20.74h.94l-7.86,17.45H14.41l-8-17.45H7.53v20.74Z" transform="translate(-0.31)"/><path class="cls-3" d="M31.4,123.46,41.87,92.37h5.38l10.51,31.09H52.05L43.45,96H45.6L37,123.46Zm5.24-6.66,1.44-5.47H50.17l1.47,5.47Z" transform="translate(-0.31)"/><path class="cls-3" d="M216.92,68.35c7.69-.15,8.09,4.8,10.31,10.49,1.25,2.69,3.06,4.78,4.51,7.61-4.17-1.34-8-4.53-9.26-8.86-.63-2.09-.86-3.85-1.59-5.18s-2.35-2.59-4-4.06Z" transform="translate(-0.31)"/><path class="cls-3" d="M79.35,68.5c-.08-13,11.69-5.14,17.85-14.15a20,20,0,0,1,2.29-3c3.19-3.23,7.72-.9,10.06,2,1.12,1.25,1.9,2.68,2.91,3.95,1.62,2.1,3.74,4,6.3,2.53,1.16-.62,2.31-1.75,3.89-2.72,4.94-3,11.6-1.3,15.28,2.92a10.78,10.78,0,0,1,2.52,5.13L137,64.63c4.85-10,9.67-19.9,14.64-29.83,3.62-6.66,7.65-14.38,15.14-17.45,3.25-1.36,7.59-.54,9.69,2.44,1.81,2.34,2.55,5.25,4,7.56,6.37,11.48,19.18,15,31.46,17.33,7.18,1.5,14.69,3,21.42,6.65,13.64,7.32,19.15,23.13,22.67,37.24-6-18.3-13.45-34.43-33.93-38.69-7.15-1.78-14.51-2.54-21.71-4.43-9.31-2.29-18.34-7.62-23.22-16.15-1.81-2.67-2.53-6.84-5.19-8.31-4.5-1.62-8.66,3.16-11.23,6.49-4.24,5.6-7.18,12.42-10.55,19s-6.61,13.18-9.95,19.76l-2.54,5-.86-5.51c-.77-5.19-8.06-8.56-12.58-5.89-1.87,1.09-4.31,3.51-7,3.5-5,.07-7.26-5-9.76-8.3-2.48-3.08-5.45-4.24-7.82-.37l-.79,1a13.57,13.57,0,0,1-5.12,3.88c-6.56,2.77-13.58-1-14.42,8.93Z" transform="translate(-0.31)"/><path class="cls-3" d="M167.31,28.7c-5.52,5.47-.77,13.35-2.69,20a10.15,10.15,0,0,1-2.38,4.38,35.32,35.32,0,0,0-3.13,3.1c-2.93,4.23-2.94,9.81-5.24,14.58a12.26,12.26,0,0,1-4.6,5.31C147,77.37,144.54,78,144.86,81c.07,1.38,0,3.16-1,4.26a2,2,0,0,1-2,.73c1.43-.08,1.92-1.71,1.85-2.87-.74-3.61-1.32-5.75,2.31-8.28a11.57,11.57,0,0,0,3.43-3.09c3.42-5.64,2.33-13.12,6.94-18.44,1.67-2,4.1-3,4.88-5.63,2-6.09-.91-15.41,6.06-19Z" transform="translate(-0.31)"/><path class="cls-3" d="M187.63,44.75c3.26,5.13,11.35,7,12.25,14,.21,1.68-.09,2.64.36,3.84,1,1.84,3.2,3.37,4.42,5.24a24,24,0,0,1,4.71,14.63,5,5,0,0,0,.74,2.74,4.67,4.67,0,0,1-1.83-2.51,34.3,34.3,0,0,0-6.6-12.51c-1.64-2.08-4-3.44-5.12-6.08-.7-1.49-.42-3.76-.45-5-.61-5.48-7.79-8.6-8.48-14.31Z" transform="translate(-0.31)"/><path class="cls-3" d="M187.63,44.75c3.26,5.13,11.35,7,12.25,14,.21,1.68-.09,2.64.36,3.84,1,1.84,3.2,3.37,4.42,5.24a24,24,0,0,1,4.71,14.63,5,5,0,0,0,.74,2.74,4.67,4.67,0,0,1-1.83-2.51,34.3,34.3,0,0,0-6.6-12.51c-1.64-2.08-4-3.44-5.12-6.08-.7-1.49-.42-3.76-.45-5-.61-5.48-7.79-8.6-8.48-14.31Z" transform="translate(-0.31)"/><path class="cls-3" d="M216.92,68.35c7.69-.15,8.09,4.8,10.31,10.49,1.25,2.69,3.06,4.78,4.51,7.61-4.17-1.34-8-4.53-9.26-8.86-.63-2.09-.86-3.85-1.59-5.18s-2.35-2.59-4-4.06Z" transform="translate(-0.31)"/><g class="cls-5"><circle class="cls-6" cx="43.92" cy="72.24" r="43.92"/></g><path class="cls-7" d="M45.75,39.47a4.24,4.24,0,0,1,2.75,2.66,3.89,3.89,0,0,1-2.35,4.78,3.77,3.77,0,0,1-4.7-2.17,3.91,3.91,0,0,1,2-5c.22-.1.51,0,.64-.31Z" transform="translate(-0.31)"/><path class="cls-7" d="M41.85,57.45c-.77,1.94-1.47,3.76-2.21,5.51-.2.44.12.45.33.56,2.31,1.16,4.61,2.35,7,3.47a3.05,3.05,0,0,1,1.81,3.11v9.29a2.49,2.49,0,0,1-4.79,1.09,3.47,3.47,0,0,1-.2-1.46V71.87A1.11,1.11,0,0,0,43,70.69c-2.47-1.2-4.94-2.44-7.39-3.66a2.63,2.63,0,0,1-1.75-3.26,2.43,2.43,0,0,1,.27-.59c1.54-3.89,3.11-7.77,4.65-11.65A2.57,2.57,0,0,1,43.55,51c1.21,1.85,2.46,3.68,3.66,5.51a1,1,0,0,0,1.06.56h5.31A2.49,2.49,0,0,1,54,62h-7.5A2.73,2.73,0,0,1,44,60.74Z" transform="translate(-0.31)"/><path class="cls-7" d="M22,59.31a11.52,11.52,0,0,1,1.78-4.52,3.49,3.49,0,0,1,4-1.14c2,.67,4,1.38,6.07,2.12.44.15.41.36.26.73-.77,1.87-1.53,3.76-2.27,5.64a4.73,4.73,0,0,0-.51,2c0,.72-.36.89-.87.79a19.37,19.37,0,0,1-7.27-2.65A3.48,3.48,0,0,1,22,59.31Z" transform="translate(-0.31)"/><path class="cls-7" d="M33.74,68.85c1.62.79,3.13,1.57,4.66,2.31a.54.54,0,0,1,.37.56,1,1,0,0,0,0,.25c0,4.13.33,3.68-3.18,6-1.68,1.11-3.37,2.2-5,3.37a2.62,2.62,0,0,1-3.71-.25.9.9,0,0,1-.15-.18,2.59,2.59,0,0,1,.78-3.59,1.82,1.82,0,0,1,.27-.15c1.8-1.21,3.62-2.44,5.5-3.62a1.07,1.07,0,0,0,.58-1.07A35.71,35.71,0,0,1,33.74,68.85Z" transform="translate(-0.31)"/><path class="cls-7" d="M33.07,45.07c1.64.53,3.57.72,5,2.21.35.37.56.69,0,1.08a3.93,3.93,0,0,0-1.38,1.93c-.32.79-.65,1.57-1,2.37s-.4,1-1.48.63c-1.86-.66-3.73-1.37-5.59-1.95-.31-.11-.57-.17-.41-.59.44-1.16.81-2.34,1.31-3.47A3.75,3.75,0,0,1,33.07,45.07Z" transform="translate(-0.31)"/><path class="cls-7" d="M53.72,72.93v7.55c0,1-.5,1.51-1.3,1.5a1.15,1.15,0,0,1-1.17-1,5.61,5.61,0,0,1,0-.82V65.25c0-.57.14-.73.73-.73,1.83,0,1.83,0,1.83,1.85Z" transform="translate(-0.31)"/><g class="cls-5"><circle class="cls-6" cx="43.92" cy="72.24" r="43.92"/></g><path class="cls-7" d="M45.75,39.47a4.24,4.24,0,0,1,2.75,2.66,3.89,3.89,0,0,1-2.35,4.78,3.77,3.77,0,0,1-4.7-2.17,3.91,3.91,0,0,1,2-5c.22-.1.51,0,.64-.31Z" transform="translate(-0.31)"/><path class="cls-7" d="M41.85,57.45c-.77,1.94-1.47,3.76-2.21,5.51-.2.44.12.45.33.56,2.31,1.16,4.61,2.35,7,3.47a3.05,3.05,0,0,1,1.81,3.11v9.29a2.49,2.49,0,0,1-4.79,1.09,3.47,3.47,0,0,1-.2-1.46V71.87A1.11,1.11,0,0,0,43,70.69c-2.47-1.2-4.94-2.44-7.39-3.66a2.63,2.63,0,0,1-1.75-3.26,2.43,2.43,0,0,1,.27-.59c1.54-3.89,3.11-7.77,4.65-11.65A2.57,2.57,0,0,1,43.55,51c1.21,1.85,2.46,3.68,3.66,5.51a1,1,0,0,0,1.06.56h5.31A2.49,2.49,0,0,1,54,62h-7.5A2.73,2.73,0,0,1,44,60.74Z" transform="translate(-0.31)"/><path class="cls-7" d="M22,59.31a11.52,11.52,0,0,1,1.78-4.52,3.49,3.49,0,0,1,4-1.14c2,.67,4,1.38,6.07,2.12.44.15.41.36.26.73-.77,1.87-1.53,3.76-2.27,5.64a4.73,4.73,0,0,0-.51,2c0,.72-.36.89-.87.79a19.37,19.37,0,0,1-7.27-2.65A3.48,3.48,0,0,1,22,59.31Z" transform="translate(-0.31)"/><path class="cls-7" d="M33.74,68.85c1.62.79,3.13,1.57,4.66,2.31a.54.54,0,0,1,.37.56,1,1,0,0,0,0,.25c0,4.13.33,3.68-3.18,6-1.68,1.11-3.37,2.2-5,3.37a2.62,2.62,0,0,1-3.71-.25.9.9,0,0,1-.15-.18,2.59,2.59,0,0,1,.78-3.59,1.82,1.82,0,0,1,.27-.15c1.8-1.21,3.62-2.44,5.5-3.62a1.07,1.07,0,0,0,.58-1.07A35.71,35.71,0,0,1,33.74,68.85Z" transform="translate(-0.31)"/><path class="cls-7" d="M33.07,45.07c1.64.53,3.57.72,5,2.21.35.37.56.69,0,1.08a3.93,3.93,0,0,0-1.38,1.93c-.32.79-.65,1.57-1,2.37s-.4,1-1.48.63c-1.86-.66-3.73-1.37-5.59-1.95-.31-.11-.57-.17-.41-.59.44-1.16.81-2.34,1.31-3.47A3.75,3.75,0,0,1,33.07,45.07Z" transform="translate(-0.31)"/><path class="cls-7" d="M53.72,72.93v7.55c0,1-.5,1.51-1.3,1.5a1.15,1.15,0,0,1-1.17-1,5.61,5.61,0,0,1,0-.82V65.25c0-.57.14-.73.73-.73,1.83,0,1.83,0,1.83,1.85Z" transform="translate(-0.31)"/></g></g></svg>